<svg version="1.1" xmlns="http://www.w3.org/2000/svg" xmlns:xlink="http://www.w3.org/1999/xlink" width="25.47736" height="25.47736" viewBox="0,0,25.47736,25.47736"><g transform="translate(-227.26142,-167.26141)"><g data-paper-data="{&quot;isPaintingLayer&quot;:true}" fill-rule="nonzero" stroke-miterlimit="10" stroke-dasharray="" stroke-dashoffset="0" style="mix-blend-mode: normal"><path d="M228.51142,180.00009c0,-6.34502 5.14365,-11.48867 11.48868,-11.48867c6.34502,0 11.48868,5.14365 11.48868,11.48868c0,6.34502 -5.14365,11.48868 -11.48867,11.48868c-6.34502,0 -11.48867,-5.14365 -11.48867,-11.48867z" fill="#150e1a" stroke="#140e1a" stroke-width="2.5" stroke-linecap="butt" stroke-linejoin="miter"/><path d="M242.3798,181.97174l5.45542,2.35296h-15.67034z" data-paper-data="{&quot;zoomLevel&quot;:2.5,&quot;index&quot;:null}" fill="#685c73" stroke="#685c73" stroke-width="2.5" stroke-linecap="round" stroke-linejoin="round"/><path d="M237.17133,181.12568l-5.00644,3.199l7.83517,-13.05887z" data-paper-data="{&quot;zoomLevel&quot;:2.5,&quot;index&quot;:null}" fill="#ad99bf" stroke="#ad99bf" stroke-width="2.5" stroke-linecap="round" stroke-linejoin="round"/><path d="M240.48062,177.20823l-0.48056,-5.94241l7.83517,13.05887z" data-paper-data="{&quot;zoomLevel&quot;:2.5,&quot;index&quot;:null}" fill="#f44611" stroke="#f44611" stroke-width="2.5" stroke-linecap="round" stroke-linejoin="round"/><path d="M242.3798,181.97174l5.45542,2.35296z" data-paper-data="{&quot;zoomLevel&quot;:2.5,&quot;index&quot;:null}" fill="#685c73" stroke="#685c73" stroke-width="2.5" stroke-linecap="round" stroke-linejoin="round"/><g fill="none" stroke="#150e1a" stroke-width="1.5" stroke-linecap="round" stroke-linejoin="round"><path d="M238.85703,178.14357l10.863,5.58927" data-paper-data="{&quot;zoomLevel&quot;:2.5,&quot;index&quot;:null}"/><path d="M238.70053,182.30145l-0.15102,-12.01213" data-paper-data="{&quot;zoomLevel&quot;:2.5,&quot;index&quot;:null}"/><path d="M232.091,186.11289l10.63335,-5.81372" data-paper-data="{&quot;zoomLevel&quot;:2.5,&quot;index&quot;:null}"/></g></g></g></svg>